<?xml version="1.0" standalone="no"?>
<!DOCTYPE svg PUBLIC "-//W3C//DTD SVG 20010904//EN"
 "http://www.w3.org/TR/2001/REC-SVG-20010904/DTD/svg10.dtd">
<svg version="1.0" xmlns="http://www.w3.org/2000/svg"
 width="432.000000pt" height="432.000000pt" viewBox="0 0 432.000000 432.000000"
 preserveAspectRatio="xMidYMid meet">
<g transform="translate(0.000000,432.000000) scale(0.100000,-0.100000)"
fill="#000000" stroke="none">
<path d="M1595 3950 c-548 -17 -771 -74 -951 -242 -138 -129 -210 -298 -250
-582 -26 -191 -39 -845 -26 -1356 12 -491 22 -608 67 -785 39 -156 93 -254
195 -355 95 -95 190 -150 330 -188 224 -62 423 -75 1200 -75 664 -1 846 7
1056 43 417 73 624 281 694 695 36 216 43 377 42 1045 -1 641 -9 855 -38 1040
-79 505 -329 704 -944 750 -182 14 -1064 20 -1375 10z m632 -390 c53 -32 67
-71 68 -186 0 -114 -16 -158 -68 -189 -43 -25 -109 -25 -143 1 -62 45 -69 66
-69 187 0 95 3 116 20 141 43 64 129 85 192 46z m-1020 -271 c33 -12 198 -171
219 -211 32 -62 6 -147 -57 -178 -80 -41 -125 -23 -246 102 -69 72 -93 105
-98 131 -12 61 20 122 77 150 39 19 66 21 105 6z m1985 1 c67 -19 113 -109 88
-175 -13 -34 -171 -199 -212 -221 -86 -45 -198 25 -198 124 0 49 20 78 112
168 123 120 133 125 210 104z m-942 -284 c144 -13 296 -74 425 -171 80 -60
104 -86 165 -169 140 -192 193 -447 144 -681 -32 -145 -90 -260 -198 -388 -28
-34 -58 -73 -67 -87 -9 -14 -33 -109 -53 -210 -57 -288 -87 -364 -178 -446
-176 -158 -538 -145 -692 27 -71 79 -94 139 -142 378 -24 119 -48 225 -53 236
-4 11 -38 56 -75 100 -145 174 -192 288 -219 535 -6 47 9 169 29 255 29 119
134 304 220 387 92 87 246 175 367 208 75 21 206 39 242 34 11 -1 49 -5 85 -8z
m-1163 -721 c89 -52 88 -187 -1 -241 -25 -16 -51 -19 -141 -19 -102 0 -113 2
-143 25 -44 33 -62 69 -62 125 0 39 5 50 39 84 45 45 66 50 192 46 61 -2 95
-8 116 -20z m2411 1 c69 -36 95 -136 51 -197 -37 -52 -72 -63 -196 -63 l-112
0 -36 34 c-45 44 -59 86 -46 138 12 44 53 90 85 97 12 2 30 6 41 9 44 11 180
-1 213 -18z"/>
<path d="M2120 2733 c-81 -7 -183 -37 -237 -70 -196 -117 -293 -282 -294 -494
-1 -158 45 -271 165 -409 36 -41 75 -96 88 -122 l23 -47 289 2 289 2 21 38
c12 21 51 75 88 120 89 111 122 168 148 257 90 303 -95 628 -400 703 -75 19
-131 25 -180 20z"/>
<path d="M1934 1288 c30 -145 40 -180 57 -203 35 -43 70 -55 166 -55 95 0 137
16 167 62 14 23 38 106 50 181 l7 37 -226 0 -225 0 4 -22z"/>
</g>
</svg>
