<?xml version="1.0" standalone="no"?>
<!DOCTYPE svg PUBLIC "-//W3C//DTD SVG 20010904//EN"
 "http://www.w3.org/TR/2001/REC-SVG-20010904/DTD/svg10.dtd">
<svg version="1.0" xmlns="http://www.w3.org/2000/svg"
 width="432.000000pt" height="432.000000pt" viewBox="0 0 432.000000 432.000000"
 preserveAspectRatio="xMidYMid meet">
<g transform="translate(0.000000,432.000000) scale(0.100000,-0.100000)"
fill="#000000" stroke="none">
<path d="M1595 3950 c-548 -17 -771 -74 -951 -242 -138 -129 -210 -298 -250
-582 -26 -191 -39 -845 -26 -1356 12 -491 22 -608 67 -785 39 -156 93 -254
195 -355 95 -95 190 -150 330 -188 224 -62 423 -75 1200 -75 664 -1 846 7
1056 43 417 73 624 281 694 695 36 216 43 377 42 1045 -1 641 -9 855 -38 1040
-79 505 -329 704 -944 750 -182 14 -1064 20 -1375 10z m1220 -979 c180 -60
306 -154 399 -298 65 -102 80 -144 163 -488 86 -356 94 -429 58 -531 -30 -87
-65 -142 -127 -201 -117 -110 -290 -158 -435 -119 -141 37 -208 93 -326 266
l-92 135 -295 0 -295 0 -77 -115 c-43 -63 -100 -138 -127 -166 -97 -100 -253
-149 -393 -126 -238 40 -409 238 -402 467 4 119 147 706 196 806 100 201 301
350 526 389 26 4 297 7 602 6 553 -2 555 -2 625 -25z"/>
<path d="M1630 2861 c-127 -18 -246 -78 -341 -173 -105 -105 -126 -156 -214
-531 -45 -190 -75 -340 -75 -372 0 -114 77 -238 181 -291 87 -43 204 -48 290
-11 67 29 113 76 203 208 52 76 106 143 125 156 34 23 37 23 361 23 324 0 327
0 361 -23 19 -13 73 -80 125 -156 115 -168 169 -212 286 -230 195 -31 388 130
388 324 0 57 -136 651 -165 719 -67 157 -205 281 -378 339 -59 20 -85 21 -577
23 -283 1 -540 -1 -570 -5z m1155 -265 c97 -97 -34 -239 -136 -148 -25 23 -32
36 -33 71 -1 36 4 47 32 72 43 38 102 40 137 5z m-1125 -111 l0 -95 95 0 95 0
0 -85 0 -85 -95 0 -95 0 0 -95 0 -95 -85 0 -85 0 0 95 0 95 -95 0 -95 0 0 85
0 85 95 0 95 0 0 95 0 95 85 0 85 0 0 -95z m896 -94 c67 -41 63 -140 -6 -176
-95 -49 -194 67 -129 149 38 48 85 57 135 27z m424 4 c37 -19 50 -43 50 -90 0
-47 -14 -71 -52 -91 -93 -48 -191 68 -127 150 36 46 80 56 129 31z m-197 -225
c52 -41 44 -136 -14 -165 -59 -31 -119 -10 -144 49 -17 40 -9 79 22 111 33 32
98 35 136 5z"/>
</g>
</svg>
